<?xml version="1.0" encoding="UTF-8" standalone="no" ?>
<!DOCTYPE svg PUBLIC "-//W3C//DTD SVG 1.1//EN" "http://www.w3.org/Graphics/SVG/1.1/DTD/svg11.dtd">
<svg xmlns="http://www.w3.org/2000/svg" xmlns:xlink="http://www.w3.org/1999/xlink" version="1.1" width="1050" height="228" viewBox="0 0 1050 228" xml:space="preserve">
<desc>Created with Fabric.js 5.2.4</desc>
<defs>
</defs>
<rect x="0" y="0" width="100%" height="100%" fill="transparent"></rect>
<g transform="matrix(1 0 0 1 525 114)" id="10d77720-ca29-494e-81f8-bec6a47ba44b"  >
<rect style="stroke: none; stroke-width: 1; stroke-dasharray: none; stroke-linecap: butt; stroke-dashoffset: 0; stroke-linejoin: miter; stroke-miterlimit: 4; fill: rgb(255,255,255); fill-rule: nonzero; opacity: 1; visibility: hidden;" vector-effect="non-scaling-stroke"  x="-525" y="-114" rx="0" ry="0" width="1050" height="228" />
</g>
<g transform="matrix(Infinity NaN NaN Infinity 0 0)" id="c71a585e-4908-4ccb-9c05-b3995977ba11"  >
</g>
<g transform="matrix(2.39 0 0 2.39 525 114)"  >
<g style=""   >
		<g transform="matrix(2.59 0 0 2.59 -141.54 0.74)" id="SvgjsG6206"  >
<path style="stroke: none; stroke-width: 1; stroke-dasharray: none; stroke-linecap: butt; stroke-dashoffset: 0; stroke-linejoin: miter; stroke-miterlimit: 4; fill: rgb(255,255,255); fill-rule: nonzero; opacity: 1;" vector-effect="non-scaling-stroke"  transform=" translate(-29.18, -11.61)" d="M 9.96 16.4 C 9.940000000000001 18.32 8.5 20 6.540000000000001 20 L 1.0000000000000009 20 L 1.0000000000000009 3.219999999999999 L 6.540000000000001 3.219999999999999 C 8.5 3.239999999999999 9.96 4.959999999999999 9.96 6.879999999999999 L 9.96 16.4 z M 6.9 16.36 L 6.9 6.9399999999999995 C 6.9 6.199999999999999 6.32 5.659999999999999 5.720000000000001 5.659999999999999 L 4.140000000000001 5.659999999999999 L 4.140000000000001 17.599999999999998 L 5.700000000000001 17.599999999999998 C 6.360000000000001 17.599999999999998 6.900000000000001 17.02 6.900000000000001 16.36 z M 17.98 12.36 L 14.780000000000001 12.36 L 14.780000000000001 17.72 L 19.62 17.72 L 19.62 20 L 11.760000000000002 20 L 11.760000000000002 3.219999999999999 L 19.62 3.219999999999999 L 19.62 5.499999999999998 L 14.780000000000001 5.499999999999998 L 14.780000000000001 10.119999999999997 L 17.98 10.119999999999997 L 17.98 12.359999999999998 z M 20.92 6.720000000000001 C 20.92 4.540000000000001 22.560000000000002 3.0600000000000005 24.28 3.0200000000000005 C 24.880000000000003 3.0200000000000005 25.46 3.0000000000000004 26.060000000000002 3.0000000000000004 C 27.820000000000004 3.0000000000000004 29.340000000000003 4.540000000000001 29.340000000000003 6.74 L 29.340000000000003 8.96 L 26.460000000000004 8.96 L 26.460000000000004 7.620000000000001 C 26.460000000000004 6.520000000000001 26.300000000000004 5.500000000000001 25.180000000000003 5.500000000000001 C 25.160000000000004 5.500000000000001 25.000000000000004 5.5200000000000005 24.980000000000004 5.5200000000000005 C 24.440000000000005 5.5600000000000005 23.940000000000005 6.0200000000000005 23.940000000000005 6.840000000000001 C 23.940000000000005 10.84 29.820000000000004 11.100000000000001 29.820000000000004 16.5 C 29.820000000000004 18.7 28.180000000000003 20.22 26.440000000000005 20.22 C 25.720000000000006 20.22 25.000000000000004 20.22 24.280000000000005 20.2 C 22.540000000000006 20.18 20.900000000000006 18.7 20.900000000000006 16.5 L 20.900000000000006 14.26 L 23.920000000000005 14.26 L 23.920000000000005 15.32 C 23.900000000000006 16.52 24.100000000000005 17.72 25.380000000000006 17.72 C 26.240000000000006 17.72 26.800000000000004 17.279999999999998 26.800000000000004 16.24 C 26.800000000000004 12.339999999999998 20.920000000000005 12.139999999999999 20.920000000000005 6.719999999999999 z M 31.360000000000007 20 L 31.360000000000007 3.219999999999999 L 34.42000000000001 3.219999999999999 L 34.42000000000001 20 L 31.36000000000001 20 z M 40.7 17.72 C 40.92 17.74 41.120000000000005 17.74 41.34 17.74 C 41.440000000000005 17.74 41.6 17.74 41.720000000000006 17.7 C 42.220000000000006 17.62 42.56000000000001 17.279999999999998 42.56000000000001 16.64 L 42.56000000000001 13.260000000000002 L 41.02000000000001 13.260000000000002 L 41.02000000000001 10.940000000000001 L 45.66000000000001 10.940000000000001 L 45.66000000000001 16.5 C 45.66000000000001 18.5 44.24000000000001 19.94 42.680000000000014 20.18 C 42.44000000000001 20.22 42.20000000000002 20.22 41.960000000000015 20.22 C 41.76000000000001 20.22 41.58000000000001 20.2 41.40000000000001 20.2 L 40.12000000000001 20.2 C 38.38000000000001 20.2 36.72000000000001 18.7 36.72000000000001 16.5 L 36.72000000000001 6.720000000000001 C 36.72000000000001 4.540000000000001 38.40000000000001 3.0200000000000005 40.12000000000001 3.0200000000000005 L 42.24000000000001 3.0200000000000005 C 44.220000000000006 3.0200000000000005 45.66000000000001 4.82 45.66000000000001 6.74 L 45.66000000000001 9.1 L 42.56000000000001 9.1 C 42.56000000000001 8.719999999999999 42.56000000000001 8.32 42.540000000000006 7.9399999999999995 C 42.540000000000006 7.8 42.540000000000006 7.68 42.50000000000001 7.539999999999999 C 42.480000000000004 7.199999999999999 42.440000000000005 6.859999999999999 42.400000000000006 6.539999999999999 C 42.36000000000001 5.759999999999999 41.940000000000005 5.479999999999999 41.24000000000001 5.479999999999999 C 41.06000000000001 5.479999999999999 40.88000000000001 5.499999999999998 40.70000000000001 5.499999999999998 C 40.12000000000001 5.599999999999998 39.80000000000001 6.039999999999998 39.80000000000001 6.619999999999998 L 39.80000000000001 16.22 C 39.80000000000001 16.82 39.94000000000001 17.72 40.70000000000001 17.72 z M 54.300000000000004 3.219999999999999 L 57.36000000000001 3.219999999999999 L 57.36000000000001 20 L 54.220000000000006 20 L 50.52 9.82 L 50.52 20 L 47.46 20 L 47.46 3.219999999999999 L 50.7 3.219999999999999 L 54.300000000000004 12.94 L 54.300000000000004 3.219999999999999 z" stroke-linecap="round" />
</g>
		<g transform="matrix(23.94 0 0 23.94 0.55 9.26)" id="SvgjsG6207"  >
<path style="stroke: none; stroke-width: 1; stroke-dasharray: none; stroke-linecap: butt; stroke-dashoffset: 0; stroke-linejoin: miter; stroke-miterlimit: 4; fill: rgb(166,211,253); fill-rule: nonzero; opacity: 1;" vector-effect="non-scaling-stroke"  transform=" translate(-2.67, -2.89)" d="M 3.726 1.855 C 3.44 2.127 3.042 2.237 2.661 2.292 C 2.321 2.3419999999999996 1.9660000000000002 2.363 1.662 2.4949999999999997 C 1.344 2.634 1.144 2.864 1.16 3.22 C 1.17 3.434 1.285 3.6430000000000002 1.4469999999999998 3.8040000000000003 C 1.492 3.84 1.538 3.874 1.586 3.905 C 1.583 3.899 1.58 3.892 1.575 3.886 C 1.382 3.621 1.232 2.862 2.242 2.697 C 2.445 2.664 2.648 2.63 2.85 2.584 C 3.028 2.543 3.346 2.443 3.3810000000000002 2.424 C 3.41 2.407 3.192 2.652 2.524 2.844 C 1.463 3.149 1.789 4.03 2.113 4.131 C 2.237 4.161 2.367 4.176 2.5 4.176 C 3.426 4.176 4.177 3.426 4.177 2.5 C 4.177 2.167 4.079999999999999 1.857 3.9129999999999994 1.597 C 3.868 1.695 3.805 1.779 3.726 1.855 z" stroke-linecap="round" />
</g>
		<g transform="matrix(23.94 0 0 23.94 -9.18 -13.77)" id="SvgjsG6207"  >
<path style="stroke: none; stroke-width: 1; stroke-dasharray: none; stroke-linecap: butt; stroke-dashoffset: 0; stroke-linejoin: miter; stroke-miterlimit: 4; fill: rgb(166,211,253); fill-rule: nonzero; opacity: 1;" vector-effect="non-scaling-stroke"  transform=" translate(-2.26, -1.92)" d="M 0.824 2.5 C 0.824 2.684 0.854 2.859 0.9079999999999999 3.025 C 0.9279999999999999 2.843 0.9899999999999999 2.671 1.1059999999999999 2.525 C 1.3159999999999998 2.258 1.642 2.133 1.9809999999999999 2.066 C 2.319 2 2.679 1.992 3.026 1.908 C 3.218 1.8619999999999999 3.413 1.787 3.5679999999999996 1.664 C 3.697 1.56 3.757 1.402 3.623 1.255 C 3.574 1.211 3.522 1.169 3.468 1.131 C 3.566 1.332 3.4899999999999998 1.631 2.695 1.709 C 2.491 1.73 2.288 1.749 2.087 1.777 C 2.028 1.785 1.955 1.796 1.88 1.809 C 1.88 1.809 1.946 1.7269999999999999 2.412 1.621 C 3.37 1.405 3.191 0.988 2.907 0.873 C 2.777 0.841 2.64 0.823 2.5 0.823 C 1.574 0.824 0.824 1.574 0.824 2.5 z" stroke-linecap="round" />
</g>
		<g transform="matrix(2.59 0 0 2.59 138.09 0.74)" id="SvgjsG6208"  >
<path style="stroke: none; stroke-width: 1; stroke-dasharray: none; stroke-linecap: butt; stroke-dashoffset: 0; stroke-linejoin: miter; stroke-miterlimit: 4; fill: rgb(255,255,255); fill-rule: nonzero; opacity: 1;" vector-effect="non-scaling-stroke"  transform=" translate(-33.63, -11.61)" d="M 13.360000000000001 14.219999999999999 L 13.360000000000001 16.4 C 13.38 18.36 11.82 20.22 9.8 20.22 C 9.700000000000001 20.2 9.64 20.2 9.56 20.2 L 8.72 20.2 C 8.48 20.2 8.24 20.2 8 20.22 L 7.7 20.22 C 5.68 20.22 4.12 18.439999999999998 4.12 16.46 L 4.12 6.760000000000002 C 4.12 4.800000000000002 5.7 3.0000000000000018 7.7 3.0000000000000018 C 8.1 3.020000000000002 8.5 3.020000000000002 8.88 3.020000000000002 L 9.780000000000001 3.020000000000002 C 11.8 3.020000000000002 13.38 4.800000000000002 13.360000000000001 6.780000000000001 L 13.360000000000001 9.400000000000002 L 9.760000000000002 9.400000000000002 L 9.760000000000002 7.920000000000002 C 9.8 5.980000000000002 9.680000000000001 5.900000000000002 8.440000000000001 5.900000000000002 C 7.960000000000001 5.900000000000002 7.660000000000001 5.980000000000002 7.660000000000001 6.600000000000002 L 7.660000000000001 16.62 C 7.660000000000001 17.3 8.22 17.32 8.72 17.32 C 9.64 17.28 9.760000000000002 16.16 9.760000000000002 14.84 L 9.760000000000002 14.22 L 13.360000000000001 14.22 z M 10.16 7.42 L 10.16 9 L 12.96 9 L 12.96 6.779999999999999 C 12.96 5.039999999999999 11.600000000000001 3.4199999999999995 9.8 3.4199999999999995 L 9.3 3.4199999999999995 C 8.760000000000002 3.4199999999999995 8.24 3.3999999999999995 7.700000000000001 3.3999999999999995 C 5.960000000000001 3.3999999999999995 4.520000000000001 5 4.520000000000001 6.76 L 4.520000000000001 16.46 C 4.520000000000001 18.240000000000002 5.940000000000001 19.82 7.700000000000001 19.82 C 8.120000000000001 19.82 8.580000000000002 19.84 9.020000000000001 19.84 L 9.120000000000001 19.84 C 9.500000000000002 19.84 9.9 19.84 10.260000000000002 19.78 C 11.820000000000002 19.540000000000003 12.96 18 12.96 16.400000000000002 L 12.96 14.620000000000003 L 10.16 14.620000000000003 L 10.16 15.100000000000003 C 10.16 16.200000000000003 10.040000000000001 17.740000000000002 8.56 17.740000000000002 C 8.06 17.740000000000002 7.260000000000001 17.540000000000003 7.260000000000001 16.62 L 7.260000000000001 6.600000000000001 C 7.260000000000001 5.660000000000002 7.86 5.500000000000002 8.440000000000001 5.500000000000002 C 10.040000000000001 5.500000000000002 10.160000000000002 6.040000000000002 10.160000000000002 7.420000000000002 z M 18.48 3.219999999999999 L 18.48 17.339999999999996 L 21.72 17.339999999999996 L 21.72 19.999999999999996 L 14.899999999999999 19.999999999999996 L 14.899999999999999 3.2199999999999953 L 18.479999999999997 3.2199999999999953 z M 21.32 19.6 L 21.32 17.740000000000002 L 18.08 17.740000000000002 L 18.08 3.6200000000000028 L 15.299999999999999 3.6200000000000028 L 15.299999999999999 19.6 L 21.32 19.6 z M 23.18 3.219999999999999 L 26.759999999999998 3.219999999999999 L 26.759999999999998 20 L 23.18 20 L 23.18 3.219999999999999 z M 23.580000000000002 3.620000000000001 L 23.580000000000002 19.6 L 26.360000000000003 19.6 L 26.360000000000003 3.620000000000001 L 23.580000000000002 3.620000000000001 z M 33.440000000000005 16.84 L 32.28000000000001 12.04 L 32.28000000000001 20 L 28.72000000000001 20 L 28.72000000000001 3.2399999999999984 L 32.42000000000001 3.2399999999999984 L 34.88000000000001 11.559999999999999 L 37.32000000000001 3.219999999999999 L 41.00000000000001 3.219999999999999 L 41.00000000000001 20 L 37.440000000000005 20 L 37.440000000000005 12.04 L 36.32000000000001 16.84 L 33.440000000000005 16.84 z M 34.88 12.98 L 32.120000000000005 3.6400000000000006 L 29.120000000000005 3.6400000000000006 L 29.120000000000005 19.6 L 31.880000000000003 19.6 L 31.880000000000003 8.700000000000001 L 33.760000000000005 16.44 L 36.00000000000001 16.44 L 37.84000000000001 8.600000000000001 L 37.84000000000001 19.6 L 40.60000000000001 19.6 L 40.60000000000001 3.620000000000001 L 37.62000000000001 3.620000000000001 z M 46.2 3.2399999999999984 L 49.64 3.2399999999999984 L 53.64 20 L 50.06 20 L 49.34 16.64 L 46.52 16.64 L 45.800000000000004 20 L 42.220000000000006 20 z M 46.18000000000001 16.240000000000002 L 49.68000000000001 16.240000000000002 L 50.38000000000001 19.6 L 53.14000000000001 19.6 L 49.32000000000001 3.6400000000000006 L 46.52000000000001 3.6400000000000006 L 42.72000000000001 19.6 L 45.48000000000001 19.6 z M 47.92 7.92 L 49.260000000000005 14.42 L 46.60000000000001 14.42 z M 48.78000000000001 14.02 L 47.92000000000001 9.92 L 47.080000000000005 14.02 L 48.78000000000001 14.02 z M 63.14000000000001 5.880000000000001 L 59.84000000000001 5.880000000000001 L 59.84000000000001 20 L 56.28000000000001 20 L 56.28000000000001 5.880000000000001 L 52.98000000000001 5.880000000000001 L 52.98000000000001 3.2400000000000007 L 63.140000000000015 3.2400000000000007 L 63.140000000000015 5.880000000000001 z M 59.44000000000001 19.6 L 59.44000000000001 5.480000000000002 L 62.74000000000001 5.480000000000002 L 62.74000000000001 3.6400000000000023 L 53.38000000000001 3.6400000000000023 L 53.38000000000001 5.480000000000002 L 56.68000000000001 5.480000000000002 L 56.68000000000001 19.6 L 59.440000000000005 19.6 z" stroke-linecap="round" />
</g>
</g>
</g>
</svg>