<!-- sample rectangle -->
<svg width="429" height="80.25479831243011" viewBox="0 0 346.3867654589118 64.8" class="looka-1j8o68f"><defs id="SvgjsDefs6205"></defs><g id="SvgjsG6206" featurekey="nameLeftFeature-0" transform="matrix(2.090592186295446,0,0,2.090592186295446,-2.090592186295446,8.728223939549679)" fill="#ffffff"><path d="M9.96 16.4 c-0.02 1.92 -1.46 3.6 -3.42 3.6 l-5.54 0 l0 -16.78 l5.54 0 c1.96 0.02 3.42 1.74 3.42 3.66 l0 9.52 z M6.9 16.36 l0 -9.42 c0 -0.74 -0.58 -1.28 -1.18 -1.28 l-1.58 0 l0 11.94 l1.56 0 c0.66 0 1.2 -0.58 1.2 -1.24 z M17.98 12.36 l-3.2 0 l0 5.36 l4.84 0 l0 2.28 l-7.86 0 l0 -16.78 l7.86 0 l0 2.28 l-4.84 0 l0 4.62 l3.2 0 l0 2.24 z M20.92 6.720000000000001 c0 -2.18 1.64 -3.66 3.36 -3.7 c0.6 0 1.18 -0.02 1.78 -0.02 c1.76 0 3.28 1.54 3.28 3.74 l0 2.22 l-2.88 0 l0 -1.34 c0 -1.1 -0.16 -2.12 -1.28 -2.12 c-0.02 0 -0.18 0.02 -0.2 0.02 c-0.54 0.04 -1.04 0.5 -1.04 1.32 c0 4 5.88 4.26 5.88 9.66 c0 2.2 -1.64 3.72 -3.38 3.72 c-0.72 0 -1.44 0 -2.16 -0.02 c-1.74 -0.02 -3.38 -1.5 -3.38 -3.7 l0 -2.24 l3.02 0 l0 1.06 c-0.02 1.2 0.18 2.4 1.46 2.4 c0.86 0 1.42 -0.44 1.42 -1.48 c0 -3.9 -5.88 -4.1 -5.88 -9.52 z M31.360000000000007 20 l0 -16.78 l3.06 0 l0 16.78 l-3.06 0 z M40.7 17.72 c0.22 0.02 0.42 0.02 0.64 0.02 c0.1 0 0.26 0 0.38 -0.04 c0.5 -0.08 0.84 -0.42 0.84 -1.06 l0 -3.38 l-1.54 0 l0 -2.32 l4.64 0 l0 5.56 c0 2 -1.42 3.44 -2.98 3.68 c-0.24 0.04 -0.48 0.04 -0.72 0.04 c-0.2 0 -0.38 -0.02 -0.56 -0.02 l-1.28 0 c-1.74 0 -3.4 -1.5 -3.4 -3.7 l0 -9.78 c0 -2.18 1.68 -3.7 3.4 -3.7 l2.12 0 c1.98 0 3.42 1.8 3.42 3.72 l0 2.36 l-3.1 0 c0 -0.38 0 -0.78 -0.02 -1.16 c0 -0.14 0 -0.26 -0.04 -0.4 c-0.02 -0.34 -0.06 -0.68 -0.1 -1 c-0.04 -0.78 -0.46 -1.06 -1.16 -1.06 c-0.18 0 -0.36 0.02 -0.54 0.02 c-0.58 0.1 -0.9 0.54 -0.9 1.12 l0 9.6 c0 0.6 0.14 1.5 0.9 1.5 z M54.300000000000004 3.219999999999999 l3.06 0 l0 16.78 l-3.14 0 l-3.7 -10.18 l0 10.18 l-3.06 0 l0 -16.78 l3.24 0 l3.6 9.72 l0 -9.72 z"></path></g><g id="SvgjsG6207" featurekey="inlineSymbolFeature-0" transform="matrix(19.325975791804915,0,0,19.325975791804915,122.07539592912207,-15.905278343900402)" fill="#a6d3fd"><g xmlns="http://www.w3.org/2000/svg"><path d="M3.726,1.855C3.44,2.127,3.042,2.237,2.661,2.292c-0.34,0.05-0.695,0.071-0.999,0.203C1.344,2.634,1.144,2.864,1.16,3.22   c0.01,0.214,0.125,0.423,0.287,0.584C1.492,3.84,1.538,3.874,1.586,3.905C1.583,3.899,1.58,3.892,1.575,3.886   C1.382,3.621,1.232,2.862,2.242,2.697C2.445,2.664,2.648,2.63,2.85,2.584c0.178-0.041,0.496-0.141,0.531-0.16   c0.029-0.017-0.189,0.228-0.857,0.42C1.463,3.149,1.789,4.03,2.113,4.131C2.237,4.161,2.367,4.176,2.5,4.176   c0.926,0,1.677-0.75,1.677-1.676c0-0.333-0.097-0.643-0.264-0.903C3.868,1.695,3.805,1.779,3.726,1.855z"></path><path d="M0.824,2.5c0,0.184,0.03,0.359,0.084,0.525c0.02-0.182,0.082-0.354,0.198-0.5c0.21-0.267,0.536-0.392,0.875-0.459   C2.319,2,2.679,1.992,3.026,1.908c0.192-0.046,0.387-0.121,0.542-0.244C3.697,1.56,3.757,1.402,3.623,1.255   C3.574,1.211,3.522,1.169,3.468,1.131c0.098,0.201,0.022,0.5-0.773,0.578C2.491,1.73,2.288,1.749,2.087,1.777   C2.028,1.785,1.955,1.796,1.88,1.809c0,0,0.066-0.082,0.532-0.188c0.958-0.216,0.779-0.633,0.495-0.748   c-0.13-0.032-0.267-0.05-0.407-0.05C1.574,0.824,0.824,1.574,0.824,2.5z"></path></g></g><g id="SvgjsG6208" featurekey="nameRightFeature-0" transform="matrix(2.090592417856904,0,0,2.090592417856904,214.386760474551,8.728224241737507)" fill="#ffffff"><path d="M13.360000000000001 14.219999999999999 l0 2.18 c0.02 1.96 -1.54 3.82 -3.56 3.82 c-0.1 -0.02 -0.16 -0.02 -0.24 -0.02 l-0.84 0 c-0.24 0 -0.48 0 -0.72 0.02 l-0.3 0 c-2.02 0 -3.58 -1.78 -3.58 -3.76 l0 -9.7 c0 -1.96 1.58 -3.76 3.58 -3.76 c0.4 0.02 0.8 0.02 1.18 0.02 l0.9 0 c2.02 0 3.6 1.78 3.58 3.76 l0 2.62 l-3.6 0 l0 -1.48 c0.04 -1.94 -0.08 -2.02 -1.32 -2.02 c-0.48 0 -0.78 0.08 -0.78 0.7 l0 10.02 c0 0.68 0.56 0.7 1.06 0.7 c0.92 -0.04 1.04 -1.16 1.04 -2.48 l0 -0.62 l3.6 0 z M10.16 7.42 l0 1.58 l2.8 0 l0 -2.22 c0 -1.74 -1.36 -3.36 -3.16 -3.36 l-0.5 0 c-0.54 0 -1.06 -0.02 -1.6 -0.02 c-1.74 0 -3.18 1.6 -3.18 3.36 l0 9.7 c0 1.78 1.42 3.36 3.18 3.36 c0.42 0 0.88 0.02 1.32 0.02 l0.1 0 c0.38 0 0.78 0 1.14 -0.06 c1.56 -0.24 2.7 -1.78 2.7 -3.38 l0 -1.78 l-2.8 0 l0 0.48 c0 1.1 -0.12 2.64 -1.6 2.64 c-0.5 0 -1.3 -0.2 -1.3 -1.12 l0 -10.02 c0 -0.94 0.6 -1.1 1.18 -1.1 c1.6 0 1.72 0.54 1.72 1.92 z M18.48 3.219999999999999 l0 14.12 l3.24 0 l0 2.66 l-6.82 0 l0 -16.78 l3.58 0 z M21.32 19.6 l0 -1.86 l-3.24 0 l0 -14.12 l-2.78 0 l0 15.98 l6.02 0 z M23.18 3.219999999999999 l3.58 0 l0 16.78 l-3.58 0 l0 -16.78 z M23.580000000000002 3.620000000000001 l0 15.98 l2.78 0 l0 -15.98 l-2.78 0 z M33.440000000000005 16.84 l-1.16 -4.8 l0 7.96 l-3.56 0 l0 -16.76 l3.7 0 l2.46 8.32 l2.44 -8.34 l3.68 0 l0 16.78 l-3.56 0 l0 -7.96 l-1.12 4.8 l-2.88 0 z M34.88 12.98 l-2.76 -9.34 l-3 0 l0 15.96 l2.76 0 l0 -10.9 l1.88 7.74 l2.24 0 l1.84 -7.84 l0 11 l2.76 0 l0 -15.98 l-2.98 0 z M46.2 3.2399999999999984 l3.44 0 l4 16.76 l-3.58 0 l-0.72 -3.36 l-2.82 0 l-0.72 3.36 l-3.58 0 z M46.18000000000001 16.240000000000002 l3.5 0 l0.7 3.36 l2.76 0 l-3.82 -15.96 l-2.8 0 l-3.8 15.96 l2.76 0 z M47.92 7.92 l1.34 6.5 l-2.66 0 z M48.78000000000001 14.02 l-0.86 -4.1 l-0.84 4.1 l1.7 0 z M63.14000000000001 5.880000000000001 l-3.3 0 l0 14.12 l-3.56 0 l0 -14.12 l-3.3 0 l0 -2.64 l10.16 0 l0 2.64 z M59.44000000000001 19.6 l0 -14.12 l3.3 0 l0 -1.84 l-9.36 0 l0 1.84 l3.3 0 l0 14.12 l2.76 0 z"></path></g></svg>